<svg xmlns="http://www.w3.org/2000/svg" viewBox="0 0 512 512" width="100%" height="100%">
  <!-- Rounded dark background for visibility in both light and dark browser tabs -->
  <rect width="512" height="512" rx="128" fill="#151619" stroke="#c8963e" stroke-width="16"/>
  
  <!-- Chat bubble -->
  <path d="M 136 116 h 240 a 40 40 0 0 1 40 40 v 140 a 40 40 0 0 1 -40 40 h -120 l -60 60 v -60 h -60 a 40 40 0 0 1 -40 -40 v -140 a 40 40 0 0 1 40 -40 z" fill="#c8963e"/>
  
  <!-- Stylized star cutout -->
  <polygon points="256,155 273,200 321,200 282,230 297,275 256,247 215,275 230,230 191,200 239,200" fill="#151619"/>
</svg>