<svg xmlns="http://www.w3.org/2000/svg" viewBox="0 0 64 64">
  <defs>
    <linearGradient id="legGrad" x1="0%" y1="0%" x2="100%" y2="100%">
      <stop offset="0%" stop-color="#D946EF" />
      <stop offset="100%" stop-color="#7E22CE" />
    </linearGradient>
    <linearGradient id="borderGrad" x1="0%" y1="0%" x2="100%" y2="100%">
      <stop offset="0%" stop-color="#F0ABFC" />
      <stop offset="100%" stop-color="#A855F7" />
    </linearGradient>
  </defs>
  <!-- Shield base -->
  <path d="M 32 4 L 56 16 L 56 34 C 56 48 42 58 32 60 C 22 58 8 48 8 34 L 8 16 Z" fill="#1e1b4b" stroke="url(#borderGrad)" stroke-width="4" stroke-linejoin="round"/>
  <!-- Inner glowing shape -->
  <path d="M 32 14 L 46 22 L 46 34 C 46 44 38 50 32 52 C 26 50 18 44 18 34 L 18 22 Z" fill="url(#legGrad)" />
  <!-- Sparkles -->
  <path d="M 32 20 L 34.5 28.5 L 43 31 L 34.5 33.5 L 32 42 L 29.5 33.5 L 21 31 L 29.5 28.5 Z" fill="#FFFFFF" />
  <path d="M 42 16 L 43 20 L 47 21 L 43 22 L 42 26 L 41 22 L 37 21 L 41 20 Z" fill="#F0ABFC" />
</svg>